<?xml version="1.0" standalone="no"?>
<!DOCTYPE svg PUBLIC "-//W3C//DTD SVG 20010904//EN"
 "http://www.w3.org/TR/2001/REC-SVG-20010904/DTD/svg10.dtd">
<svg version="1.0" xmlns="http://www.w3.org/2000/svg"
 width="622.000000pt" height="622.000000pt" viewBox="0 0 622.000000 622.000000"
 preserveAspectRatio="xMidYMid meet">
<metadata>
Created by potrace 1.11, written by Peter Selinger 2001-2013
</metadata>
<g transform="translate(0.000000,622.000000) scale(0.100000,-0.100000)"
fill="#000000" stroke="none">
<path d="M3540 4822 c0 -4 -28 -8 -63 -8 -102 -3 -177 -9 -177 -14 0 -3 -17
-6 -38 -7 -61 -5 -87 -9 -100 -17 -7 -4 -12 -2 -12 6 0 9 -3 9 -8 2 -4 -6 -17
-10 -29 -9 -13 1 -23 -3 -23 -8 0 -5 -7 -7 -15 -4 -8 4 -17 2 -20 -3 -3 -5
-12 -7 -20 -3 -9 3 -15 -1 -15 -8 0 -11 -3 -11 -10 1 -5 8 -10 10 -10 3 0 -6
-8 -10 -17 -9 -10 2 -24 -4 -31 -13 -8 -9 -11 -10 -7 -3 8 15 -7 16 -21 2 -6
-6 -27 -12 -47 -13 -19 -1 -33 -5 -31 -8 4 -8 -45 -23 -63 -20 -6 1 -14 -3
-18 -9 -3 -5 -15 -10 -26 -10 -10 0 -19 -4 -19 -9 0 -6 -9 -8 -20 -6 -11 2
-20 0 -20 -6 0 -5 -3 -8 -7 -7 -5 1 -18 -3 -30 -10 -13 -7 -23 -10 -23 -6 0 3
-6 1 -14 -5 -8 -7 -20 -11 -28 -10 -27 3 -48 -1 -48 -11 0 -5 -9 -19 -20 -30
-12 -12 -20 -15 -20 -7 0 7 -3 8 -8 2 -10 -15 -64 -49 -81 -51 -8 -2 -17 -6
-20 -11 -8 -10 -36 -28 -86 -52 -22 -11 -53 -31 -70 -45 -16 -14 -35 -30 -42
-36 -7 -5 -16 -10 -22 -10 -5 0 -11 -6 -13 -12 -5 -14 -70 -19 -79 -6 -3 4
-24 9 -47 10 -22 1 -39 4 -37 8 5 9 -27 6 -43 -4 -6 -4 -12 -3 -12 1 0 11
-111 9 -128 -1 -7 -4 -12 -2 -12 4 0 6 -5 8 -10 5 -11 -7 -33 -11 -90 -19 -19
-3 -50 -10 -67 -15 -18 -5 -33 -7 -33 -4 0 3 -7 0 -15 -7 -8 -7 -15 -9 -15 -5
0 4 -7 2 -15 -5 -8 -7 -15 -9 -15 -5 0 5 -8 1 -17 -7 -28 -24 -47 -33 -38 -19
5 9 1 9 -14 -1 -12 -7 -21 -16 -21 -20 0 -5 -5 -8 -12 -8 -6 0 -20 -8 -31 -17
-15 -13 -18 -14 -13 -3 4 8 -4 2 -18 -13 -14 -15 -26 -25 -26 -21 0 4 -8 -3
-19 -14 -10 -12 -23 -22 -29 -22 -6 0 -13 -6 -15 -12 -4 -10 -6 -10 -6 0 -1 8
-6 10 -14 6 -9 -6 -9 -4 1 8 8 10 9 19 3 22 -5 3 -7 15 -4 26 3 12 0 20 -6 20
-7 0 -9 5 -4 12 4 7 7 36 8 65 0 28 3 55 7 58 4 4 4 13 1 21 -3 8 -1 14 5 14
5 0 7 12 4 26 -3 15 -1 24 4 21 5 -3 9 10 9 29 -1 19 2 34 6 34 13 0 20 37 13
64 -5 20 -11 25 -28 23 -35 -6 -56 -18 -56 -33 0 -8 -3 -14 -7 -14 -18 0 -64
-50 -57 -61 4 -7 3 -9 -3 -6 -10 7 -53 -44 -53 -63 0 -6 -4 -8 -10 -5 -5 3
-10 -1 -10 -9 0 -8 -7 -22 -16 -30 -8 -9 -12 -16 -7 -16 4 0 2 -4 -5 -8 -7 -5
-15 -19 -17 -33 -3 -13 -9 -25 -15 -27 -5 -2 -10 -12 -10 -22 0 -10 -5 -22
-10 -25 -6 -4 -7 -11 -4 -17 4 -6 1 -13 -5 -17 -19 -12 -32 -205 -16 -232 4
-5 0 -9 -7 -9 -9 0 -9 -3 2 -10 10 -7 -5 -9 -50 -6 -36 3 -67 5 -70 6 -10 3
-103 -2 -124 -6 -11 -3 -30 -6 -41 -8 -11 -2 -40 -9 -65 -16 -25 -8 -49 -13
-53 -12 -4 1 -10 -5 -13 -13 -3 -8 -10 -13 -15 -10 -4 3 -25 -4 -46 -15 -21
-11 -44 -20 -51 -20 -7 0 -10 -5 -6 -12 5 -8 0 -9 -14 -6 -12 4 -20 3 -18 -1
3 -4 -15 -18 -40 -31 -24 -14 -44 -28 -44 -31 0 -4 -9 -9 -21 -12 -12 -3 -18
-10 -14 -17 3 -6 3 -10 -2 -9 -15 4 -43 -13 -37 -22 3 -5 0 -9 -7 -9 -14 0
-129 -117 -129 -131 0 -6 -5 -7 -12 -3 -6 4 -8 3 -4 -4 3 -6 0 -16 -7 -24 -11
-11 -26 -41 -29 -58 -1 -3 -7 -10 -15 -15 -20 -15 -24 -77 -7 -93 8 -7 14 -10
14 -6 0 3 7 1 15 -6 8 -6 18 -9 24 -6 5 3 12 -1 15 -10 3 -8 10 -12 16 -9 5 3
10 1 10 -4 0 -6 6 -11 14 -11 8 0 27 -5 43 -12 15 -6 34 -10 41 -9 8 1 20 -3
28 -10 7 -6 25 -9 39 -7 14 3 27 2 30 -2 6 -10 220 -1 220 11 0 1 9 3 20 5 54
8 80 16 87 27 4 7 8 9 8 4 0 -4 17 0 38 9 20 9 43 17 50 17 6 0 12 3 12 7 0 3
10 6 22 7 11 1 24 7 28 13 4 7 10 11 14 11 3 -1 23 6 43 14 38 16 50 14 37 -7
-4 -7 -9 -24 -10 -38 -7 -97 -16 -143 -29 -152 -6 -5 -5 -8 3 -8 6 0 12 -9 12
-21 0 -13 -4 -18 -12 -13 -7 5 -8 3 -2 -7 12 -19 11 -71 -1 -85 -5 -6 -17 -9
-25 -6 -8 3 -12 2 -9 -2 4 -4 -21 -35 -55 -69 -33 -34 -59 -63 -56 -64 3 -1
-3 -11 -12 -23 -10 -11 -15 -20 -12 -20 4 0 1 -7 -6 -15 -7 -8 -9 -15 -5 -15
4 0 2 -7 -5 -15 -7 -8 -9 -15 -4 -15 5 0 3 -4 -4 -8 -10 -7 -24 -68 -25 -109
0 -7 -5 -13 -11 -13 -6 0 -5 -4 3 -9 9 -6 10 -10 2 -16 -9 -5 -9 -10 0 -21 9
-11 9 -14 -1 -14 -8 0 -9 -4 -3 -12 5 -7 10 -26 12 -43 1 -16 7 -34 12 -39 5
-6 9 -18 9 -27 0 -9 7 -22 15 -29 9 -7 13 -15 11 -18 -9 -8 124 -132 164 -152
21 -11 42 -24 45 -30 4 -6 11 -8 16 -5 5 4 9 1 9 -5 0 -6 5 -8 10 -5 6 3 10 1
10 -4 0 -6 7 -11 16 -11 9 0 30 -10 47 -22 17 -12 27 -16 23 -9 -7 11 -4 11
15 0 13 -7 29 -14 34 -15 6 -2 25 -7 43 -13 17 -5 32 -7 32 -3 0 4 4 2 8 -5 4
-7 24 -13 45 -15 20 -1 37 -5 37 -8 0 -3 12 -7 28 -8 15 -1 38 -4 52 -7 48 -9
115 -18 157 -19 23 -1 45 -4 49 -8 3 -4 14 -3 24 2 10 5 20 6 24 3 11 -11 46
-10 46 1 0 7 3 8 8 1 8 -12 41 -13 59 -2 6 4 15 3 18 -3 5 -8 11 -7 21 1 11 9
14 8 14 -2 0 -11 2 -11 10 1 7 11 10 11 10 2 0 -8 5 -10 13 -5 18 11 36 12 43
2 4 -6 11 -6 19 1 8 7 19 9 24 6 5 -4 12 -2 16 3 3 6 13 7 23 4 20 -8 74 -44
83 -56 6 -8 29 -13 94 -22 17 -2 30 -4 30 -5 0 -1 12 -3 28 -4 15 -1 27 1 27
4 0 3 23 5 50 4 28 -1 50 1 50 5 0 3 16 7 36 7 20 1 40 8 45 15 7 11 9 11 9 1
0 -8 5 -10 13 -5 27 17 48 13 57 -13 6 -14 8 -29 5 -34 -3 -5 -1 -10 5 -12 5
-1 11 -14 14 -28 2 -14 5 -25 6 -25 1 0 3 -9 5 -20 6 -35 14 -65 20 -75 3 -6
0 -10 -7 -10 -8 0 -9 -3 -3 -8 12 -9 19 -30 18 -59 -1 -13 2 -23 6 -23 3 0 7
-19 8 -43 2 -23 5 -51 7 -62 2 -11 -2 -26 -8 -34 -8 -11 -8 -13 1 -8 14 8 27
-25 26 -66 0 -15 3 -27 6 -27 4 0 7 -19 8 -41 2 -51 12 -62 58 -64 29 -2 35 1
30 14 -4 11 1 9 17 -6 23 -20 36 -22 72 -7 14 5 17 4 12 -4 -4 -7 -2 -12 3
-12 6 0 11 -6 11 -14 0 -8 5 -18 12 -22 7 -5 8 -3 3 7 -8 12 -6 12 8 0 15 -12
20 -11 37 4 11 10 17 22 13 28 -3 6 -1 7 6 3 6 -4 9 -12 6 -17 -4 -5 0 -9 8
-9 8 0 17 -8 20 -19 2 -11 12 -18 23 -16 30 2 54 16 48 26 -3 5 1 9 9 9 8 0
22 9 32 20 10 11 15 20 11 20 -4 0 -1 7 6 15 34 38 39 47 34 61 -3 7 -1 14 4
14 6 0 10 7 10 15 0 8 5 15 11 15 6 0 9 9 6 20 -3 11 -1 20 4 20 5 0 9 7 9 16
0 9 5 12 12 8 6 -4 8 -3 4 4 -6 10 22 132 34 142 3 3 7 12 8 20 2 8 6 24 9 35
2 11 5 26 5 33 1 6 5 12 10 12 5 0 6 5 3 10 -3 5 -1 10 5 10 6 0 8 5 4 12 -5
7 -3 8 7 2 8 -5 17 -9 22 -10 4 -1 9 -3 12 -4 14 -7 31 -5 44 4 11 8 13 8 7
-1 -5 -9 1 -13 21 -14 69 -3 110 -7 137 -14 23 -6 27 -5 21 6 -7 11 -6 12 6 2
8 -6 33 -12 56 -11 23 0 46 -3 52 -6 6 -4 11 -4 11 1 0 4 69 8 153 8 91 -1
158 3 166 10 11 8 13 7 7 -3 -7 -11 -4 -12 10 -4 11 5 36 9 57 8 21 -2 40 1
42 4 3 4 16 6 30 5 14 -2 27 0 29 3 2 4 23 7 45 6 23 0 41 4 41 10 0 6 5 4 10
-4 5 -8 10 -10 10 -4 0 6 12 10 28 9 15 -1 29 2 32 6 3 3 23 9 45 12 22 2 47
6 55 8 8 2 14 0 15 -6 0 -5 4 -16 9 -24 7 -10 6 -12 -4 -6 -10 6 -11 4 -4 -6
5 -8 9 -30 10 -49 1 -19 5 -43 9 -52 4 -9 4 -21 1 -27 -3 -5 -1 -11 5 -13 7
-2 13 -21 13 -41 1 -20 4 -37 8 -37 5 0 8 -8 8 -18 0 -10 3 -22 8 -26 4 -4 7
-11 7 -14 0 -16 28 -72 36 -72 4 0 10 -8 13 -18 3 -10 19 -23 36 -29 17 -6 28
-8 25 -3 -3 4 5 10 16 13 12 3 18 10 15 16 -4 5 -2 12 4 16 9 6 14 -7 11 -27
0 -5 6 -8 15 -8 8 0 13 -4 9 -9 -13 -22 49 2 75 29 16 17 27 30 23 30 -3 0 0
6 6 13 6 8 7 18 3 22 -4 5 -1 5 6 1 7 -4 10 -12 7 -17 -4 -5 -1 -9 5 -9 6 0 8
-4 5 -10 -3 -5 -2 -10 2 -10 5 0 8 -12 7 -27 -1 -16 3 -33 8 -40 5 -7 7 -16 4
-22 -4 -5 3 -12 14 -16 11 -3 20 -10 20 -14 0 -5 10 -7 23 -6 12 1 30 3 40 4
9 0 17 7 17 15 0 7 7 19 16 26 13 11 16 10 20 -6 8 -30 58 -30 81 -1 10 13 21
24 26 25 4 1 8 5 10 9 1 4 12 19 25 33 13 14 30 32 38 41 8 9 14 21 14 27 0 7
3 12 8 12 4 0 16 17 27 37 11 20 25 42 32 49 7 6 14 18 15 25 2 8 10 19 18 25
8 7 28 37 44 68 16 31 33 56 38 56 5 0 7 4 4 9 -3 5 1 14 9 21 8 7 15 18 15
26 0 7 7 20 16 28 8 9 12 16 8 16 -3 0 -2 6 4 12 10 12 95 177 97 188 0 3 8
19 17 35 8 17 18 42 22 58 3 15 11 27 17 27 6 0 7 4 4 10 -3 5 1 23 10 40 8
16 13 30 9 30 -4 0 -1 6 5 13 6 8 8 17 4 20 -3 4 -1 7 6 7 8 0 11 7 7 15 -3 8
0 15 6 15 6 0 9 3 5 6 -3 4 0 19 9 35 8 16 14 31 14 34 -1 27 1 35 8 31 5 -3
8 5 7 17 -1 12 2 28 8 35 5 6 6 12 2 12 -4 0 -2 7 5 15 7 8 10 15 7 15 -4 0 0
18 8 41 8 23 13 45 10 49 -3 5 -1 10 5 12 5 1 11 15 12 31 1 15 6 27 10 27 4
0 7 3 7 8 -1 4 0 9 1 12 1 3 3 19 5 35 1 17 3 30 4 30 4 0 20 69 26 115 2 19
9 50 14 69 6 19 8 38 5 43 -3 5 -1 14 4 21 12 15 10 197 -2 216 -6 9 -5 12 1
8 6 -4 10 6 9 23 -1 17 -4 30 -7 30 -3 0 -6 6 -6 14 0 8 6 12 14 9 7 -3 13 -9
13 -13 0 -4 16 -31 35 -59 19 -28 35 -55 35 -61 0 -5 5 -10 10 -10 6 0 10 -7
10 -15 0 -8 5 -15 11 -15 6 0 9 -6 6 -14 -3 -8 1 -17 9 -20 8 -3 14 -13 14
-22 0 -9 9 -28 20 -44 11 -15 17 -30 13 -34 -3 -3 -1 -6 5 -6 7 0 11 -3 10 -7
-3 -15 14 -63 23 -63 5 0 8 -3 7 -7 -3 -13 13 -53 21 -53 11 0 4 -59 -9 -75
-7 -8 -9 -15 -4 -15 5 0 1 -5 -9 -11 -9 -6 -15 -14 -12 -19 3 -4 -2 -11 -11
-14 -9 -4 -14 -13 -10 -22 3 -8 2 -12 -4 -9 -5 3 -8 -3 -7 -13 1 -14 7 -17 29
-14 15 2 26 8 23 12 -3 4 1 10 8 13 14 5 20 -45 6 -53 -5 -3 -10 -15 -12 -27
-1 -12 -9 -28 -16 -37 -11 -13 -11 -16 0 -16 11 0 11 -2 -1 -10 -13 -9 -13
-11 0 -20 21 -14 21 -14 70 38 l45 47 55 -57 c31 -31 60 -54 65 -50 14 10 18
42 6 42 -6 0 -8 7 -5 15 4 8 1 21 -5 29 -7 8 -11 18 -10 22 1 5 -1 22 -6 37
-5 19 -3 32 5 40 10 9 11 9 5 -3 -6 -12 -5 -13 6 -2 7 6 21 12 31 12 11 0 18
7 18 19 0 13 -9 21 -32 25 -18 3 -40 8 -48 10 -8 3 -18 5 -22 5 -4 1 -5 8 -2
16 4 8 10 12 15 9 5 -3 9 3 9 12 0 10 3 15 6 11 11 -10 31 17 26 35 -5 20 -22
25 -22 6 0 -9 -3 -9 -11 -1 -8 8 -20 8 -35 3 -14 -6 -26 -6 -29 0 -4 6 -13 10
-21 10 -21 0 -57 36 -49 49 3 6 1 11 -4 11 -6 0 -11 14 -11 30 0 17 -4 30 -8
30 -5 0 -9 6 -10 13 -5 38 -9 54 -20 75 -7 12 -9 22 -5 22 4 0 2 5 -5 12 -7 7
-12 20 -12 31 0 10 -4 15 -10 12 -6 -3 -10 5 -10 19 0 13 -5 26 -11 28 -5 2
-11 11 -13 21 -1 10 -9 26 -17 36 -8 9 -15 24 -17 32 -2 8 -8 16 -13 17 -5 2
-9 9 -9 15 0 7 -11 25 -25 40 -14 15 -23 27 -20 27 3 0 -6 11 -21 25 -15 14
-23 25 -19 25 4 0 -10 14 -31 31 -35 27 -45 44 -78 134 -4 11 -12 28 -17 37
-5 10 -9 25 -9 33 0 8 -5 15 -11 15 -5 0 -8 4 -5 9 3 5 -1 14 -9 21 -8 7 -15
21 -15 32 0 10 -4 16 -10 13 -5 -3 -10 2 -10 12 0 10 -9 26 -20 36 -12 10 -18
22 -15 27 4 6 -1 13 -9 16 -9 3 -16 12 -16 20 0 8 -4 14 -10 14 -5 0 -10 5
-10 10 0 6 -12 24 -27 41 -16 17 -27 35 -25 40 1 5 -5 9 -13 9 -8 0 -15 4 -15
10 0 5 -22 33 -50 61 -27 28 -50 54 -50 58 0 10 -44 36 -55 32 -5 -1 -7 0 -3
4 8 9 -16 35 -31 35 -6 0 -11 7 -11 17 0 9 -3 14 -6 10 -6 -6 -32 13 -65 47
-11 11 -19 16 -19 12 0 -4 -9 2 -20 12 -11 10 -33 25 -48 33 -15 8 -31 20 -35
26 -4 7 -15 13 -22 13 -8 0 -15 5 -15 11 0 5 -5 7 -10 4 -6 -3 -13 1 -16 9 -3
9 -10 14 -14 11 -5 -3 -15 1 -23 9 -8 8 -17 12 -21 9 -3 -4 -6 -1 -6 6 0 7 -4
9 -10 6 -5 -3 -10 -1 -10 5 0 6 -4 8 -10 5 -5 -3 -10 -2 -10 3 0 9 -37 25 -52
23 -5 -1 -8 4 -8 9 0 6 -5 10 -11 10 -5 0 -35 11 -65 25 -30 14 -59 25 -64 25
-6 0 -10 4 -10 10 0 5 -3 9 -7 8 -19 -4 -83 15 -83 25 0 6 -3 8 -6 4 -4 -3
-22 0 -41 8 -19 8 -39 12 -44 9 -5 -3 -9 0 -9 5 0 6 -10 11 -23 11 -13 0 -27
3 -31 7 -7 7 -21 10 -76 17 -19 2 -43 6 -52 10 -10 3 -26 9 -35 12 -10 4 -29
8 -43 9 -14 1 -47 6 -75 9 -27 4 -59 9 -71 10 -11 2 -27 7 -34 11 -9 6 -11 4
-5 -5 6 -10 4 -11 -11 -5 -10 4 -45 8 -76 9 -32 0 -58 3 -58 6 0 3 -11 5 -25
5 -14 0 -25 -4 -25 -9 0 -5 -8 -2 -17 5 -15 12 -16 12 -8 -1 7 -12 6 -13 -6
-4 -16 12 -29 12 -46 1 -6 -4 -15 -3 -18 3 -5 8 -11 8 -20 0 -8 -7 -20 -8 -27
-4 -19 12 -38 13 -38 3 0 -6 -6 -7 -12 -2 -17 10 -38 13 -38 5z"/>
</g>
</svg>
